<svg xmlns="http://www.w3.org/2000/svg" xmlns:xlink="http://www.w3.org/1999/xlink" width="500" zoomAndPan="magnify" viewBox="0 0 375 374.999991" height="500" preserveAspectRatio="xMidYMid meet" version="1.0"><defs><g/><radialGradient gradientTransform="matrix(1, 0, 0, 1, 0.0000045, 0)" gradientUnits="userSpaceOnUse" r="265.165051" cx="187.499996" id="97bf6cb2cd" cy="187.499996" fx="187.499996" fy="187.499996"><stop stop-opacity="1" stop-color="rgb(29.356384%, 0.497437%, 50.918579%)" offset="0"/><stop stop-opacity="1" stop-color="rgb(29.272461%, 1.49231%, 50.75531%)" offset="0.00390625"/><stop stop-opacity="1" stop-color="rgb(29.188538%, 2.488708%, 50.593567%)" offset="0.0078125"/><stop stop-opacity="1" stop-color="rgb(29.104614%, 3.485107%, 50.431824%)" offset="0.0117188"/><stop stop-opacity="1" stop-color="rgb(29.020691%, 4.481506%, 50.270081%)" offset="0.015625"/><stop stop-opacity="1" stop-color="rgb(28.936768%, 5.477905%, 50.106812%)" offset="0.0195312"/><stop stop-opacity="1" stop-color="rgb(28.852844%, 6.472778%, 49.945068%)" offset="0.0234375"/><stop stop-opacity="1" stop-color="rgb(28.768921%, 7.469177%, 49.783325%)" offset="0.0273438"/><stop stop-opacity="1" stop-color="rgb(28.684998%, 8.465576%, 49.621582%)" offset="0.03125"/><stop stop-opacity="1" stop-color="rgb(28.601074%, 9.461975%, 49.458313%)" offset="0.0351562"/><stop stop-opacity="1" stop-color="rgb(28.517151%, 10.458374%, 49.29657%)" offset="0.0390625"/><stop stop-opacity="1" stop-color="rgb(28.433228%, 11.453247%, 49.134827%)" offset="0.0429688"/><stop stop-opacity="1" stop-color="rgb(28.349304%, 12.449646%, 48.973083%)" offset="0.046875"/><stop stop-opacity="1" stop-color="rgb(28.265381%, 13.446045%, 48.81134%)" offset="0.0507812"/><stop stop-opacity="1" stop-color="rgb(28.181458%, 14.442444%, 48.648071%)" offset="0.0546875"/><stop stop-opacity="1" stop-color="rgb(28.096008%, 15.438843%, 48.486328%)" offset="0.0585938"/><stop stop-opacity="1" stop-color="rgb(28.012085%, 16.433716%, 48.324585%)" offset="0.0625"/><stop stop-opacity="1" stop-color="rgb(27.928162%, 17.430115%, 48.162842%)" offset="0.0664062"/><stop stop-opacity="1" stop-color="rgb(27.844238%, 18.426514%, 47.999573%)" offset="0.0703125"/><stop stop-opacity="1" stop-color="rgb(27.760315%, 19.422913%, 47.83783%)" offset="0.0742188"/><stop stop-opacity="1" stop-color="rgb(27.676392%, 20.419312%, 47.676086%)" offset="0.078125"/><stop stop-opacity="1" stop-color="rgb(27.592468%, 21.414185%, 47.514343%)" offset="0.0820312"/><stop stop-opacity="1" stop-color="rgb(27.508545%, 22.410583%, 47.351074%)" offset="0.0859375"/><stop stop-opacity="1" stop-color="rgb(27.424622%, 23.406982%, 47.189331%)" offset="0.0898438"/><stop stop-opacity="1" stop-color="rgb(27.340698%, 24.403381%, 47.027588%)" offset="0.09375"/><stop stop-opacity="1" stop-color="rgb(27.256775%, 25.39978%, 46.865845%)" offset="0.0976562"/><stop stop-opacity="1" stop-color="rgb(27.172852%, 26.394653%, 46.702576%)" offset="0.101562"/><stop stop-opacity="1" stop-color="rgb(27.088928%, 27.391052%, 46.540833%)" offset="0.105469"/><stop stop-opacity="1" stop-color="rgb(27.005005%, 28.387451%, 46.379089%)" offset="0.109375"/><stop stop-opacity="1" stop-color="rgb(26.921082%, 29.38385%, 46.217346%)" offset="0.113281"/><stop stop-opacity="1" stop-color="rgb(26.837158%, 30.380249%, 46.054077%)" offset="0.117188"/><stop stop-opacity="1" stop-color="rgb(26.753235%, 31.375122%, 45.892334%)" offset="0.121094"/><stop stop-opacity="1" stop-color="rgb(26.669312%, 32.371521%, 45.730591%)" offset="0.125"/><stop stop-opacity="1" stop-color="rgb(26.585388%, 33.36792%, 45.568848%)" offset="0.128906"/><stop stop-opacity="1" stop-color="rgb(26.501465%, 34.364319%, 45.405579%)" offset="0.132812"/><stop stop-opacity="1" stop-color="rgb(26.417542%, 35.360718%, 45.243835%)" offset="0.136719"/><stop stop-opacity="1" stop-color="rgb(26.333618%, 36.355591%, 45.082092%)" offset="0.140625"/><stop stop-opacity="1" stop-color="rgb(26.249695%, 37.35199%, 44.920349%)" offset="0.144531"/><stop stop-opacity="1" stop-color="rgb(26.165771%, 38.348389%, 44.758606%)" offset="0.148438"/><stop stop-opacity="1" stop-color="rgb(26.081848%, 39.344788%, 44.595337%)" offset="0.152344"/><stop stop-opacity="1" stop-color="rgb(25.996399%, 40.341187%, 44.433594%)" offset="0.15625"/><stop stop-opacity="1" stop-color="rgb(25.912476%, 41.33606%, 44.271851%)" offset="0.160156"/><stop stop-opacity="1" stop-color="rgb(25.828552%, 42.332458%, 44.110107%)" offset="0.164062"/><stop stop-opacity="1" stop-color="rgb(25.744629%, 43.328857%, 43.946838%)" offset="0.167969"/><stop stop-opacity="1" stop-color="rgb(25.660706%, 44.325256%, 43.785095%)" offset="0.171875"/><stop stop-opacity="1" stop-color="rgb(25.576782%, 45.321655%, 43.623352%)" offset="0.175781"/><stop stop-opacity="1" stop-color="rgb(25.492859%, 46.316528%, 43.461609%)" offset="0.179688"/><stop stop-opacity="1" stop-color="rgb(25.408936%, 47.312927%, 43.29834%)" offset="0.183594"/><stop stop-opacity="1" stop-color="rgb(25.325012%, 48.309326%, 43.136597%)" offset="0.1875"/><stop stop-opacity="1" stop-color="rgb(25.241089%, 49.305725%, 42.974854%)" offset="0.191406"/><stop stop-opacity="1" stop-color="rgb(25.157166%, 50.302124%, 42.81311%)" offset="0.195312"/><stop stop-opacity="1" stop-color="rgb(25.106812%, 50.898743%, 42.715454%)" offset="0.199219"/><stop stop-opacity="1" stop-color="rgb(25.123596%, 50.700378%, 42.747498%)" offset="0.398438"/><stop stop-opacity="1" stop-color="rgb(25.190735%, 49.902344%, 42.877197%)" offset="0.402344"/><stop stop-opacity="1" stop-color="rgb(25.274658%, 48.907471%, 43.03894%)" offset="0.40625"/><stop stop-opacity="1" stop-color="rgb(25.358582%, 47.911072%, 43.202209%)" offset="0.410156"/><stop stop-opacity="1" stop-color="rgb(25.442505%, 46.914673%, 43.363953%)" offset="0.414062"/><stop stop-opacity="1" stop-color="rgb(25.526428%, 45.918274%, 43.525696%)" offset="0.417969"/><stop stop-opacity="1" stop-color="rgb(25.610352%, 44.921875%, 43.687439%)" offset="0.421875"/><stop stop-opacity="1" stop-color="rgb(25.694275%, 43.927002%, 43.850708%)" offset="0.425781"/><stop stop-opacity="1" stop-color="rgb(25.778198%, 42.930603%, 44.012451%)" offset="0.429688"/><stop stop-opacity="1" stop-color="rgb(25.862122%, 41.934204%, 44.174194%)" offset="0.433594"/><stop stop-opacity="1" stop-color="rgb(25.946045%, 40.937805%, 44.335938%)" offset="0.4375"/><stop stop-opacity="1" stop-color="rgb(26.029968%, 39.941406%, 44.499207%)" offset="0.441406"/><stop stop-opacity="1" stop-color="rgb(26.115417%, 38.946533%, 44.66095%)" offset="0.445312"/><stop stop-opacity="1" stop-color="rgb(26.199341%, 37.950134%, 44.822693%)" offset="0.449219"/><stop stop-opacity="1" stop-color="rgb(26.283264%, 36.953735%, 44.984436%)" offset="0.453125"/><stop stop-opacity="1" stop-color="rgb(26.367188%, 35.957336%, 45.146179%)" offset="0.457031"/><stop stop-opacity="1" stop-color="rgb(26.451111%, 34.960938%, 45.309448%)" offset="0.460938"/><stop stop-opacity="1" stop-color="rgb(26.535034%, 33.966064%, 45.471191%)" offset="0.464844"/><stop stop-opacity="1" stop-color="rgb(26.618958%, 32.969666%, 45.632935%)" offset="0.46875"/><stop stop-opacity="1" stop-color="rgb(26.702881%, 31.973267%, 45.794678%)" offset="0.472656"/><stop stop-opacity="1" stop-color="rgb(26.786804%, 30.976868%, 45.957947%)" offset="0.476562"/><stop stop-opacity="1" stop-color="rgb(26.870728%, 29.980469%, 46.11969%)" offset="0.480469"/><stop stop-opacity="1" stop-color="rgb(26.954651%, 28.985596%, 46.281433%)" offset="0.484375"/><stop stop-opacity="1" stop-color="rgb(27.038574%, 27.989197%, 46.443176%)" offset="0.488281"/><stop stop-opacity="1" stop-color="rgb(27.122498%, 26.992798%, 46.606445%)" offset="0.492188"/><stop stop-opacity="1" stop-color="rgb(27.206421%, 25.996399%, 46.768188%)" offset="0.496094"/><stop stop-opacity="1" stop-color="rgb(27.290344%, 25%, 46.929932%)" offset="0.5"/><stop stop-opacity="1" stop-color="rgb(27.374268%, 24.005127%, 47.091675%)" offset="0.503906"/><stop stop-opacity="1" stop-color="rgb(27.458191%, 23.008728%, 47.254944%)" offset="0.507812"/><stop stop-opacity="1" stop-color="rgb(27.542114%, 22.012329%, 47.416687%)" offset="0.511719"/><stop stop-opacity="1" stop-color="rgb(27.626038%, 21.01593%, 47.57843%)" offset="0.515625"/><stop stop-opacity="1" stop-color="rgb(27.709961%, 20.019531%, 47.740173%)" offset="0.519531"/><stop stop-opacity="1" stop-color="rgb(27.793884%, 19.024658%, 47.903442%)" offset="0.523438"/><stop stop-opacity="1" stop-color="rgb(27.877808%, 18.028259%, 48.065186%)" offset="0.527344"/><stop stop-opacity="1" stop-color="rgb(27.961731%, 17.03186%, 48.226929%)" offset="0.53125"/><stop stop-opacity="1" stop-color="rgb(28.045654%, 16.035461%, 48.388672%)" offset="0.535156"/><stop stop-opacity="1" stop-color="rgb(28.129578%, 15.039062%, 48.551941%)" offset="0.539062"/><stop stop-opacity="1" stop-color="rgb(28.215027%, 14.044189%, 48.713684%)" offset="0.542969"/><stop stop-opacity="1" stop-color="rgb(28.29895%, 13.047791%, 48.875427%)" offset="0.546875"/><stop stop-opacity="1" stop-color="rgb(28.382874%, 12.051392%, 49.03717%)" offset="0.550781"/><stop stop-opacity="1" stop-color="rgb(28.466797%, 11.054993%, 49.198914%)" offset="0.554688"/><stop stop-opacity="1" stop-color="rgb(28.55072%, 10.058594%, 49.362183%)" offset="0.558594"/><stop stop-opacity="1" stop-color="rgb(28.634644%, 9.063721%, 49.523926%)" offset="0.5625"/><stop stop-opacity="1" stop-color="rgb(28.718567%, 8.067322%, 49.685669%)" offset="0.566406"/><stop stop-opacity="1" stop-color="rgb(28.80249%, 7.070923%, 49.847412%)" offset="0.570312"/><stop stop-opacity="1" stop-color="rgb(28.886414%, 6.074524%, 50.010681%)" offset="0.574219"/><stop stop-opacity="1" stop-color="rgb(28.970337%, 5.078125%, 50.172424%)" offset="0.578125"/><stop stop-opacity="1" stop-color="rgb(29.05426%, 4.083252%, 50.334167%)" offset="0.582031"/><stop stop-opacity="1" stop-color="rgb(29.138184%, 3.086853%, 50.495911%)" offset="0.585938"/><stop stop-opacity="1" stop-color="rgb(29.222107%, 2.090454%, 50.65918%)" offset="0.589844"/><stop stop-opacity="1" stop-color="rgb(29.30603%, 1.094055%, 50.820923%)" offset="0.59375"/><stop stop-opacity="1" stop-color="rgb(29.356384%, 0.497437%, 50.917053%)" offset="0.597656"/><stop stop-opacity="1" stop-color="rgb(29.322815%, 0.895691%, 50.852966%)" offset="0.601562"/><stop stop-opacity="1" stop-color="rgb(29.238892%, 1.890564%, 50.691223%)" offset="0.605469"/><stop stop-opacity="1" stop-color="rgb(29.154968%, 2.886963%, 50.52948%)" offset="0.609375"/><stop stop-opacity="1" stop-color="rgb(29.071045%, 3.883362%, 50.366211%)" offset="0.613281"/><stop stop-opacity="1" stop-color="rgb(28.987122%, 4.879761%, 50.204468%)" offset="0.617188"/><stop stop-opacity="1" stop-color="rgb(28.903198%, 5.87616%, 50.042725%)" offset="0.621094"/><stop stop-opacity="1" stop-color="rgb(28.819275%, 6.871033%, 49.880981%)" offset="0.625"/><stop stop-opacity="1" stop-color="rgb(28.735352%, 7.867432%, 49.717712%)" offset="0.628906"/><stop stop-opacity="1" stop-color="rgb(28.651428%, 8.863831%, 49.555969%)" offset="0.632812"/><stop stop-opacity="1" stop-color="rgb(28.567505%, 9.860229%, 49.394226%)" offset="0.636719"/><stop stop-opacity="1" stop-color="rgb(28.483582%, 10.856628%, 49.232483%)" offset="0.640625"/><stop stop-opacity="1" stop-color="rgb(28.399658%, 11.851501%, 49.069214%)" offset="0.644531"/><stop stop-opacity="1" stop-color="rgb(28.315735%, 12.8479%, 48.907471%)" offset="0.648438"/><stop stop-opacity="1" stop-color="rgb(28.231812%, 13.844299%, 48.745728%)" offset="0.652344"/><stop stop-opacity="1" stop-color="rgb(28.147888%, 14.840698%, 48.583984%)" offset="0.65625"/><stop stop-opacity="1" stop-color="rgb(28.062439%, 15.837097%, 48.422241%)" offset="0.660156"/><stop stop-opacity="1" stop-color="rgb(27.978516%, 16.83197%, 48.258972%)" offset="0.664062"/><stop stop-opacity="1" stop-color="rgb(27.894592%, 17.828369%, 48.097229%)" offset="0.667969"/><stop stop-opacity="1" stop-color="rgb(27.810669%, 18.824768%, 47.935486%)" offset="0.671875"/><stop stop-opacity="1" stop-color="rgb(27.726746%, 19.821167%, 47.773743%)" offset="0.675781"/><stop stop-opacity="1" stop-color="rgb(27.642822%, 20.817566%, 47.610474%)" offset="0.679688"/><stop stop-opacity="1" stop-color="rgb(27.558899%, 21.812439%, 47.44873%)" offset="0.683594"/><stop stop-opacity="1" stop-color="rgb(27.474976%, 22.808838%, 47.286987%)" offset="0.6875"/><stop stop-opacity="1" stop-color="rgb(27.391052%, 23.805237%, 47.125244%)" offset="0.691406"/><stop stop-opacity="1" stop-color="rgb(27.307129%, 24.801636%, 46.961975%)" offset="0.695312"/><stop stop-opacity="1" stop-color="rgb(27.223206%, 25.798035%, 46.800232%)" offset="0.699219"/><stop stop-opacity="1" stop-color="rgb(27.139282%, 26.792908%, 46.638489%)" offset="0.703125"/><stop stop-opacity="1" stop-color="rgb(27.055359%, 27.789307%, 46.476746%)" offset="0.707031"/><stop stop-opacity="1" stop-color="rgb(26.971436%, 28.785706%, 46.313477%)" offset="0.710938"/><stop stop-opacity="1" stop-color="rgb(26.887512%, 29.782104%, 46.151733%)" offset="0.714844"/><stop stop-opacity="1" stop-color="rgb(26.803589%, 30.778503%, 45.98999%)" offset="0.71875"/><stop stop-opacity="1" stop-color="rgb(26.719666%, 31.773376%, 45.828247%)" offset="0.722656"/><stop stop-opacity="1" stop-color="rgb(26.635742%, 32.769775%, 45.664978%)" offset="0.726562"/><stop stop-opacity="1" stop-color="rgb(26.551819%, 33.766174%, 45.503235%)" offset="0.730469"/><stop stop-opacity="1" stop-color="rgb(26.467896%, 34.762573%, 45.341492%)" offset="0.734375"/><stop stop-opacity="1" stop-color="rgb(26.383972%, 35.758972%, 45.179749%)" offset="0.738281"/><stop stop-opacity="1" stop-color="rgb(26.300049%, 36.753845%, 45.016479%)" offset="0.742188"/><stop stop-opacity="1" stop-color="rgb(26.216125%, 37.750244%, 44.854736%)" offset="0.746094"/><stop stop-opacity="1" stop-color="rgb(26.132202%, 38.746643%, 44.692993%)" offset="0.75"/><stop stop-opacity="1" stop-color="rgb(26.048279%, 39.743042%, 44.53125%)" offset="0.753906"/><stop stop-opacity="1" stop-color="rgb(25.96283%, 40.739441%, 44.369507%)" offset="0.757812"/><stop stop-opacity="1" stop-color="rgb(25.878906%, 41.734314%, 44.206238%)" offset="0.761719"/><stop stop-opacity="1" stop-color="rgb(25.794983%, 42.730713%, 44.044495%)" offset="0.765625"/><stop stop-opacity="1" stop-color="rgb(25.71106%, 43.727112%, 43.882751%)" offset="0.769531"/><stop stop-opacity="1" stop-color="rgb(25.627136%, 44.723511%, 43.721008%)" offset="0.773438"/><stop stop-opacity="1" stop-color="rgb(25.543213%, 45.71991%, 43.557739%)" offset="0.777344"/><stop stop-opacity="1" stop-color="rgb(25.45929%, 46.714783%, 43.395996%)" offset="0.78125"/><stop stop-opacity="1" stop-color="rgb(25.375366%, 47.711182%, 43.234253%)" offset="0.785156"/><stop stop-opacity="1" stop-color="rgb(25.291443%, 48.707581%, 43.07251%)" offset="0.789062"/><stop stop-opacity="1" stop-color="rgb(25.20752%, 49.703979%, 42.909241%)" offset="0.792969"/><stop stop-opacity="1" stop-color="rgb(25.132751%, 50.601196%, 42.762756%)" offset="0.796875"/><stop stop-opacity="1" stop-color="rgb(25.099182%, 50.999451%, 42.698669%)" offset="0.800781"/><stop stop-opacity="1" stop-color="rgb(25.099182%, 50.999451%, 42.698669%)" offset="1"/></radialGradient><clipPath id="9cc4c8433e"><path d="M 142 121 L 233.117188 121 L 233.117188 216.195312 L 142 216.195312 Z M 142 121 " clip-rule="nonzero"/></clipPath><clipPath id="ee97f3df79"><path d="M 158 99.195312 L 223 99.195312 L 223 119 L 158 119 Z M 158 99.195312 " clip-rule="nonzero"/></clipPath><clipPath id="6ed71cb23e"><path d="M 178 189 L 203 189 L 203 216.195312 L 178 216.195312 Z M 178 189 " clip-rule="nonzero"/></clipPath></defs><rect x="-37.5" width="450" fill="#ffffff" y="-37.499999" height="449.999989" fill-opacity="1"/><rect x="-37.5" width="450" fill="#ffffff" y="-37.499999" height="449.999989" fill-opacity="1"/><rect x="-37.5" fill="url(#97bf6cb2cd)" width="450" y="-37.499999" height="449.999989"/><g clip-path="url(#9cc4c8433e)"><path fill="#eef518" d="M 233.066406 146.542969 C 233.101562 137.035156 228.277344 127.308594 224.292969 121.648438 L 216.152344 121.648438 C 218.429688 124.363281 220.179688 127.386719 221.394531 130.71875 C 222.609375 134.046875 223.222656 137.488281 223.226562 141.035156 C 223.226562 158.332031 208.492188 172.367188 190.316406 172.367188 C 172.144531 172.367188 157.402344 158.332031 157.402344 141.035156 C 157.40625 137.484375 158.019531 134.042969 159.238281 130.710938 C 160.453125 127.378906 162.203125 124.355469 164.488281 121.640625 L 156.679688 121.640625 C 154.601562 124.378906 152.992188 127.367188 151.839844 130.601562 C 150.691406 133.839844 150.058594 137.175781 149.941406 140.609375 C 149.753906 143.183594 149.921875 145.734375 150.4375 148.261719 C 150.6875 149.398438 150.699219 150.539062 150.480469 151.679688 C 150.257812 152.824219 149.824219 153.875 149.167969 154.839844 C 147.515625 157.324219 145.804688 159.769531 143.996094 162.144531 C 141.675781 165.195312 142.246094 167.585938 145.738281 169.257812 C 146.664062 169.679688 147.96875 170.316406 148.171875 171.09375 C 148.492188 172.324219 148.242188 173.824219 147.847656 175.085938 C 147.351562 176.6875 147.503906 177.800781 149.230469 178.59375 C 148.132812 180.398438 148.164062 181.859375 150.242188 183.199219 C 151.976562 184.324219 151.511719 186.433594 151.265625 188.160156 C 150.484375 193.828125 153.675781 196.261719 157.824219 196.339844 C 161.140625 196.410156 160.363281 195.917969 163.648438 195.417969 C 165.765625 195.105469 167.597656 195.339844 169.023438 196.980469 C 172.09375 200.515625 169.734375 209.136719 166.691406 213.976562 C 166.546875 214.199219 166.46875 214.445312 166.460938 214.710938 C 166.449219 214.972656 166.507812 215.222656 166.632812 215.457031 C 166.761719 215.691406 166.9375 215.875 167.167969 216.011719 C 167.394531 216.144531 167.640625 216.214844 167.90625 216.214844 L 175.757812 216.214844 L 175.757812 196.226562 C 175.757812 195.632812 175.816406 195.042969 175.933594 194.460938 C 176.050781 193.878906 176.222656 193.3125 176.449219 192.765625 C 176.675781 192.214844 176.957031 191.695312 177.285156 191.203125 C 177.617188 190.707031 177.992188 190.25 178.410156 189.832031 C 178.828125 189.410156 179.285156 189.035156 179.78125 188.707031 C 180.273438 188.375 180.792969 188.097656 181.34375 187.871094 C 181.890625 187.640625 182.457031 187.46875 183.039062 187.351562 C 183.621094 187.238281 184.207031 187.179688 184.800781 187.175781 L 195.835938 187.175781 C 196.429688 187.179688 197.015625 187.238281 197.597656 187.351562 C 198.179688 187.46875 198.746094 187.640625 199.292969 187.871094 C 199.84375 188.097656 200.363281 188.375 200.855469 188.707031 C 201.351562 189.035156 201.804688 189.410156 202.226562 189.832031 C 202.644531 190.25 203.019531 190.707031 203.351562 191.203125 C 203.679688 191.695312 203.957031 192.21875 204.1875 192.765625 C 204.414062 193.3125 204.585938 193.878906 204.699219 194.460938 C 204.816406 195.042969 204.875 195.632812 204.875 196.226562 L 204.875 216.214844 L 216.683594 216.214844 C 216.914062 216.214844 217.132812 216.160156 217.335938 216.058594 C 217.539062 215.953125 217.710938 215.8125 217.847656 215.625 C 217.984375 215.441406 218.070312 215.238281 218.109375 215.011719 C 218.148438 214.785156 218.136719 214.5625 218.066406 214.339844 C 216.835938 210.292969 215.605469 205.492188 214.648438 201.925781 C 212.175781 192.722656 213.011719 184.894531 219.375 177.328125 C 229.621094 165.148438 233.035156 156.433594 233.066406 146.542969 Z M 233.066406 146.542969 " fill-opacity="1" fill-rule="nonzero"/></g><g clip-path="url(#ee97f3df79)"><path fill="#eef518" d="M 219.976562 109.707031 C 219.804688 109.050781 219.535156 108.441406 219.160156 107.875 C 218.789062 107.308594 218.332031 106.820312 217.796875 106.40625 C 217.261719 105.992188 216.671875 105.675781 216.03125 105.457031 C 215.386719 105.238281 214.730469 105.128906 214.050781 105.128906 L 202.976562 105.128906 C 201.585938 101.738281 196.453125 99.195312 190.316406 99.195312 C 184.179688 99.195312 179.046875 101.738281 177.65625 105.125 L 166.582031 105.125 C 165.902344 105.125 165.246094 105.234375 164.605469 105.453125 C 163.960938 105.671875 163.375 105.988281 162.835938 106.402344 C 162.300781 106.816406 161.847656 107.304688 161.472656 107.871094 C 161.101562 108.4375 160.828125 109.046875 160.65625 109.703125 L 158.25 118.890625 L 222.367188 118.890625 Z M 219.976562 109.707031 " fill-opacity="1" fill-rule="nonzero"/></g><g clip-path="url(#6ed71cb23e)"><path fill="#eef518" d="M 202.121094 196.226562 C 202.121094 195.8125 202.078125 195.40625 201.996094 195 C 201.914062 194.597656 201.796875 194.203125 201.636719 193.820312 C 201.480469 193.441406 201.285156 193.078125 201.054688 192.734375 C 200.828125 192.394531 200.566406 192.074219 200.273438 191.785156 C 199.984375 191.492188 199.667969 191.230469 199.324219 191 C 198.980469 190.769531 198.621094 190.578125 198.238281 190.417969 C 197.859375 190.261719 197.464844 190.140625 197.0625 190.058594 C 196.65625 189.976562 196.25 189.933594 195.835938 189.933594 L 184.796875 189.933594 C 184.386719 189.933594 183.976562 189.976562 183.574219 190.058594 C 183.167969 190.140625 182.777344 190.261719 182.394531 190.417969 C 182.015625 190.578125 181.652344 190.773438 181.3125 191.003906 C 180.96875 191.230469 180.652344 191.492188 180.359375 191.785156 C 180.066406 192.078125 179.808594 192.394531 179.578125 192.738281 C 179.347656 193.078125 179.15625 193.441406 178.996094 193.824219 C 178.839844 194.203125 178.71875 194.597656 178.636719 195 C 178.554688 195.40625 178.515625 195.8125 178.511719 196.226562 L 178.511719 216.214844 L 202.121094 216.214844 Z M 190.316406 213.566406 C 189.480469 213.566406 188.664062 213.441406 187.867188 213.195312 C 187.066406 212.945312 186.324219 212.589844 185.632812 212.117188 C 184.941406 211.648438 184.335938 211.085938 183.8125 210.433594 C 183.289062 209.78125 182.875 209.066406 182.566406 208.289062 C 182.257812 207.515625 182.070312 206.707031 182 205.875 C 181.933594 205.042969 181.992188 204.21875 182.171875 203.402344 C 182.351562 202.585938 182.648438 201.8125 183.058594 201.085938 C 183.46875 200.355469 183.980469 199.707031 184.585938 199.132812 C 184.425781 198.671875 184.320312 198.203125 184.273438 197.71875 C 184.226562 197.238281 184.238281 196.753906 184.304688 196.273438 C 184.371094 195.792969 184.496094 195.328125 184.675781 194.878906 C 184.855469 194.425781 185.085938 194.003906 185.367188 193.609375 C 185.644531 193.210938 185.96875 192.855469 186.335938 192.539062 C 186.703125 192.21875 187.101562 191.949219 187.53125 191.726562 C 187.960938 191.503906 188.414062 191.335938 188.882812 191.21875 C 189.355469 191.105469 189.832031 191.046875 190.320312 191.046875 C 190.804688 191.046875 191.28125 191.105469 191.753906 191.21875 C 192.222656 191.335938 192.675781 191.503906 193.105469 191.726562 C 193.539062 191.949219 193.9375 192.21875 194.300781 192.539062 C 194.667969 192.855469 194.992188 193.210938 195.273438 193.609375 C 195.550781 194.003906 195.78125 194.425781 195.960938 194.878906 C 196.140625 195.328125 196.265625 195.792969 196.332031 196.273438 C 196.402344 196.753906 196.410156 197.238281 196.363281 197.71875 C 196.316406 198.203125 196.210938 198.671875 196.050781 199.132812 C 196.664062 199.707031 197.175781 200.355469 197.589844 201.085938 C 198.003906 201.8125 198.304688 202.585938 198.484375 203.40625 C 198.667969 204.222656 198.726562 205.050781 198.660156 205.886719 C 198.59375 206.722656 198.40625 207.53125 198.09375 208.308594 C 197.785156 209.089844 197.371094 209.804688 196.84375 210.460938 C 196.320312 211.113281 195.710938 211.675781 195.019531 212.144531 C 194.324219 212.617188 193.578125 212.976562 192.777344 213.222656 C 191.972656 213.464844 191.15625 213.589844 190.316406 213.585938 Z M 190.316406 213.566406 " fill-opacity="1" fill-rule="nonzero"/></g><path fill="#eef518" d="M 213.34375 143.660156 C 213.101562 144.4375 212.761719 145.171875 212.328125 145.863281 C 211.890625 146.554688 211.375 147.175781 210.777344 147.730469 C 210.175781 148.285156 209.515625 148.75 208.792969 149.128906 C 208.074219 149.511719 207.3125 149.792969 206.519531 149.972656 C 206.519531 150.265625 206.519531 150.546875 206.476562 150.820312 C 207.777344 151.488281 208.863281 152.410156 209.730469 153.589844 C 210.59375 154.769531 211.152344 156.082031 211.402344 157.523438 C 212.195312 157.429688 212.957031 157.210938 213.679688 156.867188 C 214.402344 156.523438 215.046875 156.074219 215.621094 155.511719 C 216.195312 154.953125 216.660156 154.316406 217.023438 153.601562 C 217.382812 152.890625 217.621094 152.136719 217.730469 151.34375 C 217.839844 150.550781 217.820312 149.761719 217.671875 148.972656 C 217.519531 148.1875 217.246094 147.445312 216.847656 146.75 C 216.453125 146.054688 215.953125 145.445312 215.355469 144.914062 C 214.753906 144.382812 214.082031 143.964844 213.34375 143.660156 Z M 213.34375 143.660156 " fill-opacity="1" fill-rule="nonzero"/><path fill="#eef518" d="M 206.027344 152.976562 C 205.71875 153.898438 205.273438 154.753906 204.695312 155.535156 C 204.117188 156.320312 203.433594 157 202.644531 157.566406 C 201.855469 158.136719 200.996094 158.574219 200.070312 158.875 C 199.144531 159.171875 198.195312 159.324219 197.21875 159.328125 C 196.476562 159.324219 195.742188 159.234375 195.019531 159.054688 C 195.019531 159.085938 195.019531 159.121094 195.019531 159.148438 C 195.019531 159.464844 195.039062 159.777344 195.078125 160.089844 C 195.117188 160.398438 195.179688 160.707031 195.257812 161.011719 C 195.339844 161.316406 195.4375 161.613281 195.558594 161.90625 C 195.675781 162.195312 195.816406 162.476562 195.96875 162.75 C 196.125 163.023438 196.300781 163.285156 196.488281 163.535156 C 196.679688 163.789062 196.882812 164.023438 197.105469 164.25 C 197.328125 164.472656 197.5625 164.679688 197.808594 164.875 C 198.058594 165.066406 198.316406 165.242188 198.585938 165.402344 C 198.859375 165.5625 199.136719 165.703125 199.429688 165.824219 C 199.71875 165.949219 200.011719 166.050781 200.316406 166.136719 C 200.617188 166.21875 200.925781 166.285156 201.238281 166.328125 C 201.546875 166.371094 201.863281 166.394531 202.175781 166.398438 C 202.488281 166.402344 202.804688 166.386719 203.117188 166.347656 C 203.425781 166.308594 203.734375 166.253906 204.039062 166.175781 C 204.34375 166.097656 204.644531 166 204.933594 165.882812 C 205.226562 165.765625 205.511719 165.632812 205.785156 165.476562 C 206.058594 165.324219 206.320312 165.152344 206.574219 164.964844 C 206.824219 164.777344 207.066406 164.574219 207.289062 164.355469 C 207.515625 164.136719 207.726562 163.902344 207.921875 163.65625 C 208.117188 163.410156 208.292969 163.152344 208.457031 162.882812 C 208.617188 162.613281 208.761719 162.332031 208.886719 162.046875 C 209.011719 161.757812 209.117188 161.460938 209.203125 161.160156 C 209.292969 160.855469 209.359375 160.550781 209.40625 160.238281 C 209.453125 159.929688 209.476562 159.617188 209.484375 159.300781 C 209.488281 158.988281 209.476562 158.671875 209.441406 158.359375 C 209.40625 158.046875 209.351562 157.738281 209.277344 157.433594 C 209.199219 157.128906 209.105469 156.828125 208.992188 156.535156 C 208.878906 156.242188 208.746094 155.957031 208.59375 155.683594 C 208.441406 155.40625 208.273438 155.144531 208.089844 154.890625 C 207.902344 154.636719 207.703125 154.394531 207.484375 154.167969 C 207.269531 153.941406 207.035156 153.726562 206.792969 153.53125 C 206.546875 153.332031 206.292969 153.152344 206.023438 152.988281 Z M 206.027344 152.976562 " fill-opacity="1" fill-rule="nonzero"/><path fill="#eef518" d="M 204.460938 133.6875 C 203.996094 133.6875 203.535156 133.730469 203.078125 133.820312 C 202.621094 133.910156 202.179688 134.042969 201.746094 134.214844 C 201.316406 134.390625 200.90625 134.605469 200.515625 134.859375 C 200.128906 135.113281 199.765625 135.402344 199.429688 135.726562 C 199.097656 136.050781 198.796875 136.402344 198.53125 136.785156 C 198.265625 137.167969 198.039062 137.570312 197.851562 137.996094 C 197.664062 138.421875 197.519531 138.863281 197.417969 139.316406 C 197.3125 139.769531 197.253906 140.230469 197.242188 140.695312 C 197.761719 140.695312 198.277344 140.742188 198.789062 140.832031 C 199.300781 140.917969 199.804688 141.050781 200.296875 141.222656 C 200.785156 141.394531 201.257812 141.609375 201.714844 141.859375 C 202.167969 142.113281 202.601562 142.398438 203.007812 142.722656 C 203.414062 143.046875 203.789062 143.402344 204.136719 143.792969 C 204.484375 144.179688 204.796875 144.59375 205.074219 145.03125 C 205.355469 145.472656 205.59375 145.933594 205.792969 146.414062 C 205.996094 146.894531 206.15625 147.386719 206.273438 147.894531 C 206.695312 147.785156 207.101562 147.636719 207.5 147.453125 C 207.894531 147.269531 208.269531 147.050781 208.625 146.800781 C 208.980469 146.546875 209.3125 146.265625 209.617188 145.957031 C 209.921875 145.644531 210.195312 145.308594 210.441406 144.945312 C 210.683594 144.585938 210.894531 144.207031 211.070312 143.804688 C 211.246094 143.40625 211.382812 142.996094 211.484375 142.570312 C 211.585938 142.148438 211.648438 141.71875 211.671875 141.28125 C 211.695312 140.847656 211.679688 140.414062 211.625 139.980469 C 211.570312 139.546875 211.476562 139.125 211.34375 138.707031 C 211.210938 138.292969 211.042969 137.890625 210.839844 137.507812 C 210.636719 137.121094 210.398438 136.757812 210.128906 136.414062 C 209.859375 136.074219 209.5625 135.757812 209.234375 135.46875 C 208.90625 135.179688 208.558594 134.921875 208.183594 134.699219 C 207.808594 134.472656 207.417969 134.285156 207.011719 134.128906 C 206.605469 133.976562 206.1875 133.859375 205.757812 133.78125 C 205.328125 133.703125 204.898438 133.660156 204.460938 133.660156 Z M 204.460938 133.6875 " fill-opacity="1" fill-rule="nonzero"/><path fill="#eef518" d="M 181.410156 138.214844 C 181.410156 136.761719 181.730469 135.386719 182.371094 134.089844 C 181.871094 133.621094 181.3125 133.230469 180.699219 132.921875 C 180.089844 132.613281 179.445312 132.398438 178.769531 132.273438 C 178.097656 132.144531 177.417969 132.117188 176.734375 132.1875 C 176.050781 132.253906 175.390625 132.417969 174.757812 132.671875 C 174.121094 132.929688 173.53125 133.269531 172.992188 133.695312 C 172.453125 134.117188 171.984375 134.609375 171.585938 135.167969 C 171.183594 135.726562 170.871094 136.328125 170.644531 136.976562 C 170.417969 137.625 170.285156 138.289062 170.246094 138.976562 C 170.980469 139.050781 171.695312 139.210938 172.394531 139.457031 C 173.089844 139.703125 173.746094 140.027344 174.367188 140.429688 C 174.988281 140.835938 175.550781 141.304688 176.058594 141.839844 C 176.566406 142.378906 177.003906 142.96875 177.371094 143.609375 C 178.679688 142.414062 180.207031 141.660156 181.949219 141.34375 C 181.589844 140.332031 181.410156 139.289062 181.410156 138.214844 Z M 181.410156 138.214844 " fill-opacity="1" fill-rule="nonzero"/><path fill="#eef518" d="M 190.171875 143.945312 C 191.503906 142.394531 193.167969 141.390625 195.164062 140.9375 C 195.160156 139.875 195.339844 138.84375 195.691406 137.839844 C 196.046875 136.839844 196.558594 135.925781 197.226562 135.101562 C 197.015625 134.6875 196.769531 134.296875 196.484375 133.933594 C 196.195312 133.566406 195.878906 133.230469 195.527344 132.929688 C 195.175781 132.625 194.800781 132.355469 194.398438 132.125 C 193.996094 131.890625 193.578125 131.699219 193.136719 131.550781 C 192.699219 131.398438 192.25 131.292969 191.789062 131.226562 C 191.332031 131.164062 190.871094 131.144531 190.40625 131.167969 C 189.941406 131.191406 189.484375 131.261719 189.035156 131.375 C 188.585938 131.488281 188.152344 131.640625 187.730469 131.835938 C 187.308594 132.035156 186.914062 132.269531 186.539062 132.542969 C 186.160156 132.816406 185.816406 133.121094 185.5 133.460938 C 185.183594 133.800781 184.902344 134.167969 184.65625 134.5625 C 184.410156 134.957031 184.207031 135.371094 184.039062 135.800781 C 183.875 136.234375 183.75 136.679688 183.671875 137.140625 C 183.589844 137.597656 183.554688 138.054688 183.5625 138.519531 C 183.570312 138.984375 183.625 139.445312 183.71875 139.898438 C 183.816406 140.351562 183.957031 140.792969 184.136719 141.21875 C 185.277344 141.285156 186.367188 141.554688 187.40625 142.023438 C 188.449219 142.496094 189.371094 143.136719 190.171875 143.945312 Z M 190.171875 143.945312 " fill-opacity="1" fill-rule="nonzero"/><path fill="#eef518" d="M 197.21875 142.765625 C 196.097656 142.765625 195.03125 143.015625 194.023438 143.511719 C 193.015625 144.011719 192.171875 144.707031 191.488281 145.597656 C 191.917969 146.285156 192.253906 147.015625 192.492188 147.789062 C 192.730469 148.5625 192.863281 149.351562 192.890625 150.164062 C 192.921875 150.972656 192.847656 151.769531 192.667969 152.558594 C 192.484375 153.347656 192.207031 154.101562 191.828125 154.816406 C 192.027344 155.039062 192.242188 155.25 192.46875 155.449219 C 192.695312 155.648438 192.929688 155.828125 193.179688 155.996094 C 193.429688 156.164062 193.6875 156.316406 193.957031 156.453125 C 194.222656 156.585938 194.5 156.707031 194.78125 156.808594 C 195.066406 156.910156 195.351562 156.992188 195.644531 157.058594 C 195.9375 157.121094 196.234375 157.167969 196.535156 157.199219 C 196.832031 157.226562 197.132812 157.234375 197.433594 157.226562 C 197.734375 157.21875 198.03125 157.191406 198.328125 157.144531 C 198.625 157.097656 198.917969 157.035156 199.207031 156.953125 C 199.496094 156.867188 199.777344 156.769531 200.054688 156.652344 C 200.332031 156.53125 200.597656 156.398438 200.859375 156.246094 C 201.117188 156.097656 201.367188 155.929688 201.605469 155.746094 C 201.84375 155.566406 202.070312 155.367188 202.285156 155.15625 C 202.5 154.945312 202.699219 154.722656 202.886719 154.488281 C 203.070312 154.253906 203.242188 154.007812 203.398438 153.75 C 203.554688 153.492188 203.695312 153.226562 203.816406 152.953125 C 203.9375 152.679688 204.042969 152.398438 204.132812 152.109375 C 204.21875 151.824219 204.289062 151.53125 204.339844 151.234375 C 204.390625 150.941406 204.425781 150.640625 204.4375 150.339844 C 204.453125 150.042969 204.449219 149.742188 204.425781 149.441406 C 204.402344 149.140625 204.359375 148.84375 204.300781 148.550781 C 204.242188 148.257812 204.164062 147.96875 204.066406 147.683594 C 203.96875 147.398438 203.855469 147.121094 203.726562 146.847656 C 203.59375 146.578125 203.449219 146.316406 203.285156 146.066406 C 203.121094 145.8125 202.945312 145.574219 202.75 145.34375 C 202.558594 145.113281 202.351562 144.894531 202.128906 144.691406 C 201.910156 144.488281 201.675781 144.296875 201.433594 144.121094 C 201.1875 143.945312 200.933594 143.789062 200.671875 143.644531 C 200.40625 143.5 200.136719 143.375 199.855469 143.265625 C 199.578125 143.15625 199.292969 143.0625 199 142.988281 C 198.710938 142.914062 198.414062 142.859375 198.117188 142.820312 C 197.820312 142.785156 197.519531 142.765625 197.21875 142.765625 Z M 197.21875 142.765625 " fill-opacity="1" fill-rule="nonzero"/><path fill="#eef518" d="M 183.601562 143.261719 C 182.578125 143.261719 181.601562 143.46875 180.667969 143.882812 C 179.734375 144.300781 178.925781 144.886719 178.242188 145.648438 C 178.488281 146.492188 178.613281 147.355469 178.613281 148.230469 C 178.613281 148.363281 178.613281 148.492188 178.613281 148.617188 C 179.109375 148.734375 179.589844 148.894531 180.058594 149.089844 C 180.527344 149.285156 180.976562 149.519531 181.40625 149.789062 C 181.835938 150.0625 182.242188 150.363281 182.621094 150.703125 C 183 151.039062 183.351562 151.402344 183.671875 151.796875 C 183.992188 152.191406 184.28125 152.609375 184.53125 153.050781 C 184.785156 153.492188 185 153.949219 185.175781 154.425781 C 185.355469 154.902344 185.492188 155.390625 185.589844 155.890625 C 185.6875 156.386719 185.742188 156.890625 185.757812 157.398438 C 186.167969 157.269531 186.5625 157.105469 186.941406 156.910156 C 187.320312 156.710938 187.679688 156.480469 188.019531 156.214844 C 188.355469 155.953125 188.667969 155.664062 188.957031 155.34375 C 189.242188 155.027344 189.5 154.683594 189.726562 154.320312 C 189.953125 153.957031 190.144531 153.578125 190.304688 153.179688 C 190.460938 152.78125 190.585938 152.371094 190.671875 151.953125 C 190.757812 151.53125 190.804688 151.109375 190.816406 150.679688 C 190.828125 150.25 190.800781 149.824219 190.734375 149.402344 C 190.667969 148.976562 190.566406 148.5625 190.429688 148.15625 C 190.289062 147.75 190.117188 147.359375 189.910156 146.988281 C 189.703125 146.613281 189.460938 146.257812 189.191406 145.925781 C 188.921875 145.59375 188.625 145.289062 188.296875 145.007812 C 187.972656 144.730469 187.625 144.480469 187.257812 144.261719 C 186.886719 144.046875 186.503906 143.863281 186.101562 143.714844 C 185.699219 143.5625 185.289062 143.453125 184.867188 143.375 C 184.445312 143.300781 184.019531 143.261719 183.589844 143.261719 Z M 183.601562 143.261719 " fill-opacity="1" fill-rule="nonzero"/><path fill="#eef518" d="M 192.953125 159.128906 C 192.953125 158.84375 192.96875 158.5625 193 158.28125 C 192.121094 157.832031 191.332031 157.261719 190.632812 156.5625 C 189.289062 158.132812 187.609375 159.140625 185.589844 159.585938 C 185.191406 161.472656 184.292969 163.078125 182.898438 164.40625 C 183.152344 165.007812 183.484375 165.5625 183.886719 166.074219 C 184.292969 166.585938 184.757812 167.035156 185.285156 167.417969 C 185.8125 167.804688 186.378906 168.113281 186.988281 168.34375 C 187.597656 168.574219 188.226562 168.71875 188.875 168.78125 C 189.523438 168.84375 190.167969 168.816406 190.8125 168.703125 C 191.453125 168.589844 192.070312 168.394531 192.65625 168.113281 C 193.246094 167.832031 193.789062 167.480469 194.28125 167.054688 C 194.773438 166.628906 195.203125 166.144531 195.566406 165.601562 C 194.722656 164.734375 194.078125 163.742188 193.625 162.621094 C 193.175781 161.5 192.949219 160.335938 192.953125 159.128906 Z M 192.953125 159.128906 " fill-opacity="1" fill-rule="nonzero"/><path fill="#eef518" d="M 178.28125 150.667969 C 178.148438 151.15625 177.976562 151.632812 177.765625 152.09375 C 177.554688 152.554688 177.308594 152.992188 177.023438 153.414062 C 176.742188 153.835938 176.425781 154.230469 176.082031 154.597656 C 175.734375 154.96875 175.359375 155.308594 174.957031 155.617188 C 174.554688 155.925781 174.128906 156.199219 173.683594 156.4375 C 173.238281 156.675781 172.773438 156.875 172.292969 157.039062 C 171.8125 157.203125 171.324219 157.324219 170.824219 157.410156 C 170.324219 157.492188 169.824219 157.535156 169.316406 157.535156 L 169.253906 157.535156 C 169.253906 157.582031 169.253906 157.628906 169.253906 157.675781 C 169.25 158.125 169.292969 158.570312 169.375 159.011719 C 169.457031 159.453125 169.582031 159.886719 169.746094 160.304688 C 169.90625 160.722656 170.109375 161.125 170.34375 161.507812 C 170.582031 161.886719 170.855469 162.246094 171.15625 162.574219 C 171.460938 162.90625 171.792969 163.207031 172.152344 163.476562 C 172.515625 163.746094 172.894531 163.980469 173.300781 164.179688 C 173.703125 164.375 174.121094 164.535156 174.554688 164.65625 C 174.988281 164.773438 175.429688 164.855469 175.875 164.890625 C 176.324219 164.929688 176.773438 164.925781 177.21875 164.878906 C 177.667969 164.835938 178.105469 164.746094 178.535156 164.621094 C 178.96875 164.492188 179.382812 164.328125 179.785156 164.121094 C 180.183594 163.917969 180.5625 163.675781 180.917969 163.402344 C 181.273438 163.125 181.597656 162.820312 181.898438 162.484375 C 182.195312 162.144531 182.460938 161.785156 182.691406 161.398438 C 182.921875 161.011719 183.113281 160.609375 183.269531 160.1875 C 183.425781 159.765625 183.542969 159.332031 183.617188 158.890625 C 183.691406 158.445312 183.726562 158 183.71875 157.550781 C 183.710938 157.101562 183.660156 156.65625 183.570312 156.214844 C 183.476562 155.773438 183.347656 155.347656 183.175781 154.929688 C 183.003906 154.515625 182.796875 154.117188 182.550781 153.738281 C 182.308594 153.363281 182.03125 153.011719 181.71875 152.6875 C 181.410156 152.359375 181.070312 152.066406 180.707031 151.804688 C 180.339844 151.542969 179.957031 151.316406 179.546875 151.125 C 179.140625 150.933594 178.71875 150.78125 178.285156 150.671875 Z M 178.28125 150.667969 " fill-opacity="1" fill-rule="nonzero"/><path fill="#eef518" d="M 170.964844 141.179688 C 171.425781 141.289062 171.875 141.441406 172.308594 141.636719 C 172.738281 141.835938 173.148438 142.070312 173.535156 142.347656 C 173.917969 142.625 174.273438 142.9375 174.597656 143.285156 C 174.921875 143.632812 175.210938 144.007812 175.460938 144.410156 C 175.710938 144.816406 175.921875 145.238281 176.085938 145.683594 C 176.253906 146.128906 176.375 146.585938 176.453125 147.054688 C 176.53125 147.523438 176.558594 147.996094 176.542969 148.46875 C 176.527344 148.945312 176.464844 149.414062 176.359375 149.875 C 176.25 150.339844 176.097656 150.785156 175.902344 151.21875 C 175.703125 151.652344 175.46875 152.0625 175.191406 152.449219 C 174.914062 152.832031 174.601562 153.1875 174.253906 153.511719 C 173.90625 153.835938 173.53125 154.125 173.128906 154.375 C 172.726562 154.625 172.300781 154.835938 171.855469 155 C 171.410156 155.167969 170.957031 155.289062 170.488281 155.367188 C 170.019531 155.445312 169.546875 155.476562 169.070312 155.460938 C 168.597656 155.441406 168.128906 155.382812 167.667969 155.273438 C 167.203125 155.164062 166.757812 155.011719 166.324219 154.816406 C 165.890625 154.617188 165.480469 154.382812 165.097656 154.105469 C 164.710938 153.828125 164.355469 153.515625 164.03125 153.167969 C 163.707031 152.820312 163.417969 152.445312 163.167969 152.042969 C 162.917969 151.636719 162.710938 151.214844 162.542969 150.769531 C 162.375 150.324219 162.253906 149.867188 162.175781 149.398438 C 162.101562 148.929688 162.070312 148.457031 162.085938 147.984375 C 162.101562 147.507812 162.164062 147.039062 162.273438 146.578125 C 162.382812 146.113281 162.535156 145.667969 162.730469 145.234375 C 162.925781 144.800781 163.164062 144.390625 163.441406 144.003906 C 163.71875 143.621094 164.027344 143.265625 164.375 142.941406 C 164.722656 142.617188 165.097656 142.328125 165.5 142.078125 C 165.90625 141.828125 166.328125 141.617188 166.773438 141.449219 C 167.21875 141.285156 167.675781 141.164062 168.144531 141.085938 C 168.613281 141.007812 169.085938 140.976562 169.558594 140.992188 C 170.035156 141.011719 170.503906 141.070312 170.964844 141.179688 Z M 170.964844 141.179688 " fill-opacity="1" fill-rule="nonzero"/><path fill="#eef518" d="M 194.898438 206.570312 L 185.734375 206.570312 C 185.507812 206.570312 185.292969 206.527344 185.085938 206.441406 C 184.878906 206.355469 184.695312 206.234375 184.535156 206.074219 C 184.378906 205.917969 184.253906 205.734375 184.167969 205.527344 C 184.082031 205.316406 184.039062 205.101562 184.039062 204.878906 C 184.039062 204.652344 184.082031 204.4375 184.167969 204.230469 C 184.253906 204.023438 184.378906 203.839844 184.535156 203.679688 C 184.695312 203.519531 184.878906 203.398438 185.085938 203.3125 C 185.292969 203.226562 185.507812 203.183594 185.734375 203.183594 L 194.898438 203.183594 C 195.125 203.183594 195.339844 203.226562 195.546875 203.3125 C 195.753906 203.398438 195.9375 203.519531 196.097656 203.679688 C 196.257812 203.839844 196.378906 204.023438 196.464844 204.230469 C 196.550781 204.4375 196.59375 204.652344 196.59375 204.878906 C 196.59375 205.101562 196.550781 205.316406 196.464844 205.527344 C 196.378906 205.734375 196.257812 205.917969 196.097656 206.074219 C 195.9375 206.234375 195.753906 206.355469 195.546875 206.441406 C 195.339844 206.527344 195.125 206.570312 194.898438 206.570312 Z M 194.898438 206.570312 " fill-opacity="1" fill-rule="nonzero"/><g fill="#eef518" fill-opacity="1"><g transform="translate(135.637297, 252.615293)"><g><path d="M 14.921875 -0.515625 C 14.960938 -0.304688 14.898438 -0.15625 14.734375 -0.0625 C 14.578125 0.0195312 14.234375 0.0625 13.703125 0.0625 C 13.078125 0.0625 12.523438 0.0390625 12.046875 0 L 10.59375 -6.15625 L 4.5625 -6.15625 L 3.21875 -0.484375 C 3.144531 -0.273438 3.035156 -0.128906 2.890625 -0.046875 C 2.742188 0.0234375 2.414062 0.0625 1.90625 0.0625 C 1.414062 0.0625 0.835938 0.03125 0.171875 -0.03125 L 6.375 -23.84375 C 6.4375 -24.164062 6.78125 -24.328125 7.40625 -24.328125 C 7.9375 -24.328125 8.375 -24.289062 8.71875 -24.21875 Z M 9.96875 -8.6875 L 8.796875 -13.671875 C 8.117188 -16.484375 7.710938 -18.707031 7.578125 -20.34375 C 7.328125 -18.289062 6.910156 -16.066406 6.328125 -13.671875 L 5.15625 -8.6875 Z M 9.96875 -8.6875 "/></g></g></g><g fill="#eef518" fill-opacity="1"><g transform="translate(150.762642, 252.615293)"><g><path d="M 1.515625 -22.953125 C 1.515625 -23.410156 1.5625 -23.71875 1.65625 -23.875 C 1.75 -24.039062 1.960938 -24.140625 2.296875 -24.171875 C 2.628906 -24.203125 3.316406 -24.21875 4.359375 -24.21875 L 4.359375 -0.546875 C 4.359375 -0.347656 4.3125 -0.210938 4.21875 -0.140625 C 4.125 -0.0664062 3.847656 -0.0234375 3.390625 -0.015625 C 2.929688 -0.00390625 2.304688 0 1.515625 0 Z M 1.515625 -22.953125 "/></g></g></g><g fill="#eef518" fill-opacity="1"><g transform="translate(156.612035, 252.615293)"><g><path d="M 11.59375 -24.265625 C 12.425781 -24.265625 12.84375 -24.085938 12.84375 -23.734375 C 12.84375 -23.648438 12.804688 -23.550781 12.734375 -23.4375 L 7.125 -13.78125 C 9.894531 -11.675781 11.753906 -7.289062 12.703125 -0.625 C 12.722656 -0.34375 12.65625 -0.15625 12.5 -0.0625 C 12.351562 0.0195312 12.039062 0.0625 11.5625 0.0625 C 10.957031 0.0625 10.3125 0.03125 9.625 -0.03125 C 9.070312 -2.96875 8.503906 -5.28125 7.921875 -6.96875 C 7.347656 -8.664062 6.597656 -10.007812 5.671875 -11 C 5.367188 -11.351562 4.910156 -11.664062 4.296875 -11.9375 L 4.296875 -0.546875 C 4.296875 -0.347656 4.253906 -0.210938 4.171875 -0.140625 C 4.085938 -0.0664062 3.816406 -0.0234375 3.359375 -0.015625 C 2.898438 -0.00390625 2.265625 0 1.453125 0 L 1.453125 -23.671875 C 1.453125 -23.878906 1.492188 -24.015625 1.578125 -24.078125 C 1.660156 -24.148438 1.929688 -24.191406 2.390625 -24.203125 C 2.847656 -24.210938 3.484375 -24.21875 4.296875 -24.21875 L 4.296875 -13.78125 L 9.828125 -24.046875 C 10.492188 -24.191406 11.082031 -24.265625 11.59375 -24.265625 Z M 11.59375 -24.265625 "/></g></g></g><g fill="#eef518" fill-opacity="1"><g transform="translate(170.076011, 252.615293)"><g><path d="M 1.515625 -22.953125 C 1.515625 -23.410156 1.5625 -23.71875 1.65625 -23.875 C 1.75 -24.039062 1.960938 -24.140625 2.296875 -24.171875 C 2.628906 -24.203125 3.316406 -24.21875 4.359375 -24.21875 L 4.359375 -0.546875 C 4.359375 -0.347656 4.3125 -0.210938 4.21875 -0.140625 C 4.125 -0.0664062 3.847656 -0.0234375 3.390625 -0.015625 C 2.929688 -0.00390625 2.304688 0 1.515625 0 Z M 1.515625 -22.953125 "/></g></g></g><g fill="#eef518" fill-opacity="1"><g transform="translate(175.925404, 252.615293)"><g/></g></g><g fill="#eef518" fill-opacity="1"><g transform="translate(181.394061, 252.615293)"><g><path d="M 1.515625 -22.953125 C 1.515625 -23.410156 1.5625 -23.71875 1.65625 -23.875 C 1.75 -24.039062 1.960938 -24.140625 2.296875 -24.171875 C 2.628906 -24.203125 3.316406 -24.21875 4.359375 -24.21875 L 4.359375 -0.546875 C 4.359375 -0.347656 4.3125 -0.210938 4.21875 -0.140625 C 4.125 -0.0664062 3.847656 -0.0234375 3.390625 -0.015625 C 2.929688 -0.00390625 2.304688 0 1.515625 0 Z M 1.515625 -22.953125 "/></g></g></g><g fill="#eef518" fill-opacity="1"><g transform="translate(187.243454, 252.615293)"><g><path d="M 7.78125 -0.546875 C 7.78125 -0.347656 7.738281 -0.210938 7.65625 -0.140625 C 7.582031 -0.0664062 7.3125 -0.0234375 6.84375 -0.015625 C 6.382812 -0.00390625 5.765625 0 4.984375 0 L 4.984375 -9.859375 L 0.203125 -23.78125 C 0.160156 -23.9375 0.1875 -24.039062 0.28125 -24.09375 C 0.375 -24.15625 0.679688 -24.191406 1.203125 -24.203125 C 1.734375 -24.210938 2.453125 -24.21875 3.359375 -24.21875 L 4.734375 -19.484375 C 5.085938 -18.398438 5.453125 -17.050781 5.828125 -15.4375 C 6.210938 -13.820312 6.425781 -12.75 6.46875 -12.21875 C 6.519531 -12.726562 6.738281 -13.796875 7.125 -15.421875 C 7.519531 -17.046875 7.890625 -18.398438 8.234375 -19.484375 L 9.453125 -23.703125 C 9.492188 -23.890625 9.566406 -24.015625 9.671875 -24.078125 C 9.773438 -24.148438 10.0625 -24.191406 10.53125 -24.203125 C 11.007812 -24.210938 11.648438 -24.21875 12.453125 -24.21875 L 7.78125 -10.03125 Z M 7.78125 -0.546875 "/></g></g></g><g fill="#eef518" fill-opacity="1"><g transform="translate(199.842136, 252.615293)"><g><path d="M 11.59375 -24.265625 C 12.425781 -24.265625 12.84375 -24.085938 12.84375 -23.734375 C 12.84375 -23.648438 12.804688 -23.550781 12.734375 -23.4375 L 7.125 -13.78125 C 9.894531 -11.675781 11.753906 -7.289062 12.703125 -0.625 C 12.722656 -0.34375 12.65625 -0.15625 12.5 -0.0625 C 12.351562 0.0195312 12.039062 0.0625 11.5625 0.0625 C 10.957031 0.0625 10.3125 0.03125 9.625 -0.03125 C 9.070312 -2.96875 8.503906 -5.28125 7.921875 -6.96875 C 7.347656 -8.664062 6.597656 -10.007812 5.671875 -11 C 5.367188 -11.351562 4.910156 -11.664062 4.296875 -11.9375 L 4.296875 -0.546875 C 4.296875 -0.347656 4.253906 -0.210938 4.171875 -0.140625 C 4.085938 -0.0664062 3.816406 -0.0234375 3.359375 -0.015625 C 2.898438 -0.00390625 2.265625 0 1.453125 0 L 1.453125 -23.671875 C 1.453125 -23.878906 1.492188 -24.015625 1.578125 -24.078125 C 1.660156 -24.148438 1.929688 -24.191406 2.390625 -24.203125 C 2.847656 -24.210938 3.484375 -24.21875 4.296875 -24.21875 L 4.296875 -13.78125 L 9.828125 -24.046875 C 10.492188 -24.191406 11.082031 -24.265625 11.59375 -24.265625 Z M 11.59375 -24.265625 "/></g></g></g><g fill="#eef518" fill-opacity="1"><g transform="translate(213.306112, 252.615293)"><g><path d="M 7.78125 -0.546875 C 7.78125 -0.347656 7.738281 -0.210938 7.65625 -0.140625 C 7.582031 -0.0664062 7.3125 -0.0234375 6.84375 -0.015625 C 6.382812 -0.00390625 5.765625 0 4.984375 0 L 4.984375 -9.859375 L 0.203125 -23.78125 C 0.160156 -23.9375 0.1875 -24.039062 0.28125 -24.09375 C 0.375 -24.15625 0.679688 -24.191406 1.203125 -24.203125 C 1.734375 -24.210938 2.453125 -24.21875 3.359375 -24.21875 L 4.734375 -19.484375 C 5.085938 -18.398438 5.453125 -17.050781 5.828125 -15.4375 C 6.210938 -13.820312 6.425781 -12.75 6.46875 -12.21875 C 6.519531 -12.726562 6.738281 -13.796875 7.125 -15.421875 C 7.519531 -17.046875 7.890625 -18.398438 8.234375 -19.484375 L 9.453125 -23.703125 C 9.492188 -23.890625 9.566406 -24.015625 9.671875 -24.078125 C 9.773438 -24.148438 10.0625 -24.191406 10.53125 -24.203125 C 11.007812 -24.210938 11.648438 -24.21875 12.453125 -24.21875 L 7.78125 -10.03125 Z M 7.78125 -0.546875 "/></g></g></g><g fill="#eef518" fill-opacity="1"><g transform="translate(225.904794, 252.615293)"><g><path d="M 11.59375 -24.265625 C 12.425781 -24.265625 12.84375 -24.085938 12.84375 -23.734375 C 12.84375 -23.648438 12.804688 -23.550781 12.734375 -23.4375 L 7.125 -13.78125 C 9.894531 -11.675781 11.753906 -7.289062 12.703125 -0.625 C 12.722656 -0.34375 12.65625 -0.15625 12.5 -0.0625 C 12.351562 0.0195312 12.039062 0.0625 11.5625 0.0625 C 10.957031 0.0625 10.3125 0.03125 9.625 -0.03125 C 9.070312 -2.96875 8.503906 -5.28125 7.921875 -6.96875 C 7.347656 -8.664062 6.597656 -10.007812 5.671875 -11 C 5.367188 -11.351562 4.910156 -11.664062 4.296875 -11.9375 L 4.296875 -0.546875 C 4.296875 -0.347656 4.253906 -0.210938 4.171875 -0.140625 C 4.085938 -0.0664062 3.816406 -0.0234375 3.359375 -0.015625 C 2.898438 -0.00390625 2.265625 0 1.453125 0 L 1.453125 -23.671875 C 1.453125 -23.878906 1.492188 -24.015625 1.578125 -24.078125 C 1.660156 -24.148438 1.929688 -24.191406 2.390625 -24.203125 C 2.847656 -24.210938 3.484375 -24.21875 4.296875 -24.21875 L 4.296875 -13.78125 L 9.828125 -24.046875 C 10.492188 -24.191406 11.082031 -24.265625 11.59375 -24.265625 Z M 11.59375 -24.265625 "/></g></g></g><g fill="#eef518" fill-opacity="1"><g transform="translate(153.420727, 268.77137)"><g><path d="M 8.609375 1.140625 C 8.691406 1.253906 8.753906 1.40625 8.796875 1.59375 C 8.835938 1.78125 8.859375 1.945312 8.859375 2.09375 C 8.859375 2.394531 8.65625 2.613281 8.25 2.75 C 7.84375 2.894531 7.398438 2.96875 6.921875 2.96875 C 6.179688 2.96875 5.59375 2.75 5.15625 2.3125 C 4.71875 1.882812 4.367188 1.175781 4.109375 0.1875 C 3.253906 0.132812 2.578125 -0.140625 2.078125 -0.640625 C 1.585938 -1.140625 1.226562 -1.941406 1 -3.046875 C 0.769531 -4.160156 0.65625 -5.695312 0.65625 -7.65625 C 0.65625 -9.5625 0.800781 -11.078125 1.09375 -12.203125 C 1.382812 -13.328125 1.832031 -14.132812 2.4375 -14.625 C 3.050781 -15.113281 3.835938 -15.359375 4.796875 -15.359375 C 5.753906 -15.359375 6.503906 -15.125 7.046875 -14.65625 C 7.597656 -14.1875 8 -13.398438 8.25 -12.296875 C 8.5 -11.203125 8.625 -9.675781 8.625 -7.71875 C 8.625 -5.363281 8.421875 -3.582031 8.015625 -2.375 C 7.617188 -1.175781 6.976562 -0.398438 6.09375 -0.046875 C 6.1875 0.515625 6.316406 0.914062 6.484375 1.15625 C 6.660156 1.394531 6.914062 1.515625 7.25 1.515625 C 7.78125 1.515625 8.234375 1.390625 8.609375 1.140625 Z M 2.609375 -7.21875 C 2.609375 -5.832031 2.671875 -4.734375 2.796875 -3.921875 C 2.921875 -3.109375 3.125 -2.515625 3.40625 -2.140625 C 3.695312 -1.765625 4.101562 -1.578125 4.625 -1.578125 C 5.15625 -1.578125 5.570312 -1.78125 5.875 -2.1875 C 6.1875 -2.59375 6.410156 -3.234375 6.546875 -4.109375 C 6.679688 -4.984375 6.75 -6.171875 6.75 -7.671875 C 6.75 -9.171875 6.691406 -10.335938 6.578125 -11.171875 C 6.460938 -12.015625 6.257812 -12.625 5.96875 -13 C 5.675781 -13.375 5.269531 -13.5625 4.75 -13.5625 C 4.238281 -13.5625 3.828125 -13.351562 3.515625 -12.9375 C 3.203125 -12.53125 2.972656 -11.867188 2.828125 -10.953125 C 2.679688 -10.035156 2.609375 -8.789062 2.609375 -7.21875 Z M 2.609375 -7.21875 "/></g></g></g><g fill="#eef518" fill-opacity="1"><g transform="translate(162.699667, 268.77137)"><g><path d="M 4.1875 0.21875 C 3.34375 0.21875 2.6875 0.0859375 2.21875 -0.171875 C 1.757812 -0.429688 1.4375 -0.816406 1.25 -1.328125 C 1.0625 -1.835938 0.96875 -2.519531 0.96875 -3.375 L 0.96875 -10.46875 C 0.96875 -10.59375 0.992188 -10.675781 1.046875 -10.71875 C 1.097656 -10.769531 1.269531 -10.796875 1.5625 -10.796875 C 1.863281 -10.804688 2.265625 -10.8125 2.765625 -10.8125 L 2.765625 -3.21875 C 2.765625 -2.488281 2.863281 -1.984375 3.0625 -1.703125 C 3.257812 -1.429688 3.648438 -1.296875 4.234375 -1.296875 C 4.816406 -1.296875 5.300781 -1.429688 5.6875 -1.703125 L 5.6875 -10.46875 C 5.6875 -10.59375 5.710938 -10.675781 5.765625 -10.71875 C 5.828125 -10.769531 6 -10.796875 6.28125 -10.796875 C 6.5625 -10.804688 6.945312 -10.8125 7.4375 -10.8125 L 7.4375 -0.5625 C 7.007812 -0.332031 6.503906 -0.144531 5.921875 0 C 5.347656 0.144531 4.769531 0.21875 4.1875 0.21875 Z M 4.1875 0.21875 "/></g></g></g><g fill="#eef518" fill-opacity="1"><g transform="translate(171.113436, 268.77137)"><g><path d="M 1.015625 -10.015625 C 1.015625 -10.285156 1.0625 -10.472656 1.15625 -10.578125 C 1.25 -10.691406 1.40625 -10.757812 1.625 -10.78125 C 1.84375 -10.800781 2.222656 -10.8125 2.765625 -10.8125 L 2.765625 -0.34375 C 2.765625 -0.21875 2.738281 -0.128906 2.6875 -0.078125 C 2.632812 -0.0351562 2.460938 -0.0078125 2.171875 0 C 1.890625 0 1.503906 0 1.015625 0 Z M 1.828125 -12.328125 C 1.242188 -12.328125 0.953125 -12.742188 0.953125 -13.578125 C 0.953125 -14.503906 1.285156 -14.96875 1.953125 -14.96875 C 2.265625 -14.96875 2.484375 -14.875 2.609375 -14.6875 C 2.742188 -14.5 2.8125 -14.171875 2.8125 -13.703125 C 2.8125 -13.273438 2.722656 -12.9375 2.546875 -12.6875 C 2.378906 -12.445312 2.140625 -12.328125 1.828125 -12.328125 Z M 1.828125 -12.328125 "/></g></g></g><g fill="#eef518" fill-opacity="1"><g transform="translate(174.898553, 268.77137)"><g><path d="M 0.734375 0 C 0.722656 -0.0078125 0.691406 -0.046875 0.640625 -0.109375 C 0.597656 -0.179688 0.554688 -0.28125 0.515625 -0.40625 C 0.472656 -0.539062 0.453125 -0.691406 0.453125 -0.859375 C 0.453125 -1.117188 0.503906 -1.335938 0.609375 -1.515625 L 4.828125 -9.34375 L 2.59375 -9.34375 C 1.769531 -9.34375 1.109375 -9.304688 0.609375 -9.234375 C 0.566406 -9.472656 0.546875 -9.75 0.546875 -10.0625 C 0.546875 -10.3125 0.585938 -10.5 0.671875 -10.625 C 0.753906 -10.75 0.898438 -10.8125 1.109375 -10.8125 L 6.625 -10.8125 C 6.632812 -10.800781 6.664062 -10.75 6.71875 -10.65625 C 6.769531 -10.5625 6.796875 -10.429688 6.796875 -10.265625 C 6.796875 -9.992188 6.726562 -9.710938 6.59375 -9.421875 L 2.484375 -1.625 L 4.40625 -1.625 C 5.363281 -1.625 6.128906 -1.695312 6.703125 -1.84375 C 6.734375 -1.726562 6.75 -1.472656 6.75 -1.078125 C 6.75 -0.691406 6.703125 -0.414062 6.609375 -0.25 C 6.515625 -0.0820312 6.332031 0 6.0625 0 Z M 0.734375 0 "/></g></g></g><g fill="#eef518" fill-opacity="1"><g transform="translate(182.144342, 268.77137)"><g/></g></g><g fill="#eef518" fill-opacity="1"><g transform="translate(185.561763, 268.77137)"><g><path d="M 4.71875 0.21875 C 3.707031 0.21875 2.910156 0.015625 2.328125 -0.390625 C 1.753906 -0.804688 1.332031 -1.546875 1.0625 -2.609375 C 0.789062 -3.679688 0.65625 -5.21875 0.65625 -7.21875 C 0.65625 -9.394531 0.835938 -11.070312 1.203125 -12.25 C 1.566406 -13.4375 2.078125 -14.25 2.734375 -14.6875 C 3.398438 -15.132812 4.253906 -15.359375 5.296875 -15.359375 C 5.992188 -15.359375 6.550781 -15.242188 6.96875 -15.015625 C 7.394531 -14.796875 7.609375 -14.539062 7.609375 -14.25 C 7.609375 -13.90625 7.53125 -13.53125 7.375 -13.125 C 7.175781 -13.28125 6.921875 -13.40625 6.609375 -13.5 C 6.304688 -13.59375 5.984375 -13.640625 5.640625 -13.640625 C 4.878906 -13.640625 4.273438 -13.445312 3.828125 -13.0625 C 3.378906 -12.6875 3.046875 -12.046875 2.828125 -11.140625 C 2.617188 -10.234375 2.515625 -8.972656 2.515625 -7.359375 C 2.515625 -5.691406 2.597656 -4.4375 2.765625 -3.59375 C 2.941406 -2.75 3.1875 -2.1875 3.5 -1.90625 C 3.820312 -1.625 4.238281 -1.484375 4.75 -1.484375 C 5.101562 -1.484375 5.390625 -1.539062 5.609375 -1.65625 C 5.835938 -1.78125 5.988281 -1.90625 6.0625 -2.03125 L 6.0625 -7.421875 L 4.4375 -7.421875 L 4.4375 -8.515625 C 4.4375 -8.742188 4.570312 -8.859375 4.84375 -8.859375 L 7.671875 -8.859375 L 7.671875 -0.75 C 6.898438 -0.101562 5.914062 0.21875 4.71875 0.21875 Z M 4.71875 0.21875 "/></g></g></g><g fill="#eef518" fill-opacity="1"><g transform="translate(193.910647, 268.77137)"><g><path d="M 3.59375 0.21875 C 2.664062 0.21875 1.9375 0 1.40625 -0.4375 C 0.882812 -0.882812 0.625 -1.765625 0.625 -3.078125 C 0.625 -4.441406 0.882812 -5.375 1.40625 -5.875 C 1.9375 -6.375 2.644531 -6.625 3.53125 -6.625 C 4.207031 -6.625 4.734375 -6.53125 5.109375 -6.34375 L 5.109375 -8.046875 C 5.109375 -8.535156 5 -8.875 4.78125 -9.0625 C 4.5625 -9.25 4.222656 -9.34375 3.765625 -9.34375 C 3.242188 -9.34375 2.71875 -9.296875 2.1875 -9.203125 C 1.65625 -9.109375 1.222656 -8.988281 0.890625 -8.84375 C 0.734375 -9.144531 0.65625 -9.484375 0.65625 -9.859375 C 0.65625 -10.148438 0.734375 -10.34375 0.890625 -10.4375 C 1.109375 -10.582031 1.523438 -10.71875 2.140625 -10.84375 C 2.765625 -10.96875 3.445312 -11.03125 4.1875 -11.03125 C 5.125 -11.03125 5.800781 -10.828125 6.21875 -10.421875 C 6.644531 -10.015625 6.859375 -9.335938 6.859375 -8.390625 L 6.859375 -7.25 C 6.859375 -4.070312 6.8125 -1.828125 6.71875 -0.515625 C 6.375 -0.296875 5.9375 -0.117188 5.40625 0.015625 C 4.875 0.148438 4.269531 0.21875 3.59375 0.21875 Z M 3.890625 -1.25 C 4.117188 -1.25 4.34375 -1.285156 4.5625 -1.359375 C 4.78125 -1.429688 4.9375 -1.507812 5.03125 -1.59375 C 5.082031 -2.082031 5.109375 -3.253906 5.109375 -5.109375 C 4.828125 -5.242188 4.488281 -5.3125 4.09375 -5.3125 C 3.570312 -5.3125 3.164062 -5.160156 2.875 -4.859375 C 2.582031 -4.554688 2.4375 -3.972656 2.4375 -3.109375 C 2.4375 -2.378906 2.554688 -1.882812 2.796875 -1.625 C 3.035156 -1.375 3.398438 -1.25 3.890625 -1.25 Z M 3.890625 -1.25 "/></g></g></g><g fill="#eef518" fill-opacity="1"><g transform="translate(201.567392, 268.77137)"><g><path d="M 8.859375 -11.03125 C 9.554688 -11.03125 10.082031 -10.914062 10.4375 -10.6875 C 10.789062 -10.457031 11.023438 -10.128906 11.140625 -9.703125 C 11.253906 -9.273438 11.3125 -8.703125 11.3125 -7.984375 L 11.3125 -0.34375 C 11.3125 -0.21875 11.28125 -0.128906 11.21875 -0.078125 C 11.164062 -0.0351562 10.992188 -0.0078125 10.703125 0 C 10.410156 0 10.03125 0 9.5625 0 L 9.5625 -8 C 9.5625 -8.5625 9.488281 -8.953125 9.34375 -9.171875 C 9.207031 -9.390625 8.925781 -9.5 8.5 -9.5 C 7.96875 -9.5 7.476562 -9.359375 7.03125 -9.078125 L 7.03125 -0.34375 C 7.03125 -0.21875 7.003906 -0.128906 6.953125 -0.078125 C 6.898438 -0.0351562 6.738281 -0.0078125 6.46875 0 C 6.195312 0 5.8125 0 5.3125 0 L 5.296875 0 L 5.296875 -8.046875 C 5.296875 -8.453125 5.273438 -8.75 5.234375 -8.9375 C 5.191406 -9.132812 5.09375 -9.28125 4.9375 -9.375 C 4.789062 -9.46875 4.550781 -9.515625 4.21875 -9.515625 C 3.695312 -9.515625 3.207031 -9.382812 2.75 -9.125 L 2.75 -0.34375 C 2.75 -0.21875 2.71875 -0.128906 2.65625 -0.078125 C 2.601562 -0.0351562 2.429688 -0.0078125 2.140625 0 C 1.847656 0 1.46875 0 1 0 L 1 -10.3125 C 2.050781 -10.789062 3.140625 -11.03125 4.265625 -11.03125 C 5.148438 -11.03125 5.804688 -10.804688 6.234375 -10.359375 C 6.585938 -10.554688 7.003906 -10.71875 7.484375 -10.84375 C 7.972656 -10.96875 8.429688 -11.03125 8.859375 -11.03125 Z M 8.859375 -11.03125 "/></g></g></g><g fill="#eef518" fill-opacity="1"><g transform="translate(213.766278, 268.77137)"><g><path d="M 4.46875 -1.46875 C 5.34375 -1.46875 6.164062 -1.695312 6.9375 -2.15625 C 7.039062 -1.84375 7.09375 -1.445312 7.09375 -0.96875 C 7.09375 -0.632812 6.800781 -0.351562 6.21875 -0.125 C 5.632812 0.101562 4.929688 0.21875 4.109375 0.21875 C 3.367188 0.21875 2.75 0.0820312 2.25 -0.1875 C 1.757812 -0.46875 1.367188 -0.972656 1.078125 -1.703125 C 0.796875 -2.441406 0.65625 -3.488281 0.65625 -4.84375 C 0.65625 -6.53125 0.828125 -7.828125 1.171875 -8.734375 C 1.523438 -9.640625 1.976562 -10.25 2.53125 -10.5625 C 3.082031 -10.875 3.726562 -11.03125 4.46875 -11.03125 C 6.300781 -11.03125 7.21875 -9.875 7.21875 -7.5625 C 7.21875 -6.414062 7.140625 -5.476562 6.984375 -4.75 C 6.347656 -4.625 5.609375 -4.535156 4.765625 -4.484375 C 3.921875 -4.429688 3.144531 -4.40625 2.4375 -4.40625 C 2.46875 -3.632812 2.554688 -3.035156 2.703125 -2.609375 C 2.859375 -2.191406 3.078125 -1.894531 3.359375 -1.71875 C 3.640625 -1.550781 4.007812 -1.46875 4.46875 -1.46875 Z M 4.28125 -9.5 C 3.757812 -9.5 3.335938 -9.226562 3.015625 -8.6875 C 2.703125 -8.144531 2.519531 -7.179688 2.46875 -5.796875 C 3.894531 -5.796875 4.878906 -5.882812 5.421875 -6.0625 C 5.492188 -6.382812 5.53125 -6.816406 5.53125 -7.359375 C 5.519531 -8.160156 5.425781 -8.71875 5.25 -9.03125 C 5.082031 -9.34375 4.757812 -9.5 4.28125 -9.5 Z M 4.28125 -9.5 "/></g></g></g></svg>